TITLE ""
FILE "P1Q_t_1378-1387.mp3" MP3
  TRACK 01 AUDIO
    TITLE "P1Q_t_1378-1387_01"
    INDEX 01 00:00:00
  TRACK 02 AUDIO
    TITLE "P1Q_t_1378-1387_02"
    INDEX 01 00:01:22
  TRACK 03 AUDIO
    TITLE "P1Q_t_1378-1387_03"
    INDEX 01 00:01:41
  TRACK 04 AUDIO
    TITLE "P1Q_t_1378-1387_04"
    INDEX 01 00:02:66
  TRACK 05 AUDIO
    TITLE "P1Q_t_1378-1387_05"
    INDEX 01 00:03:11
  TRACK 06 AUDIO
    TITLE "P1Q_t_1378-1387_06"
    INDEX 01 00:06:60
  TRACK 07 AUDIO
    TITLE "P1Q_t_1378-1387_07"
    INDEX 01 00:07:32
  TRACK 08 AUDIO
    TITLE "P1Q_t_1378-1387_08"
    INDEX 01 00:08:35
  TRACK 09 AUDIO
    TITLE "P1Q_t_1378-1387_09"
    INDEX 01 00:08:61
  TRACK 10 AUDIO
    TITLE "P1Q_t_1378-1387_10"
    INDEX 01 00:11:04
  TRACK 11 AUDIO
    TITLE "P1Q_t_1378-1387_11"
    INDEX 01 00:11:24
  TRACK 12 AUDIO
    TITLE "P1Q_t_1378-1387_12"
    INDEX 01 00:16:27
  TRACK 13 AUDIO
    TITLE "P1Q_t_1378-1387_13"
    INDEX 01 00:16:72
  TRACK 14 AUDIO
    TITLE "P1Q_t_1378-1387_14"
    INDEX 01 00:18:02
  TRACK 15 AUDIO
    TITLE "P1Q_t_1378-1387_15"
    INDEX 01 00:18:26
  TRACK 16 AUDIO
    TITLE "P1Q_t_1378-1387_16"
    INDEX 01 00:20:60
  TRACK 17 AUDIO
    TITLE "P1Q_t_1378-1387_17"
    INDEX 01 00:21:05
  TRACK 18 AUDIO
    TITLE "P1Q_t_1378-1387_18"
    INDEX 01 00:25:36
  TRACK 19 AUDIO
    TITLE "P1Q_t_1378-1387_19"
    INDEX 01 00:26:08
  TRACK 20 AUDIO
    TITLE "P1Q_t_1378-1387_20"
    INDEX 01 00:27:21
  TRACK 21 AUDIO
    TITLE "P1Q_t_1378-1387_21"
    INDEX 01 00:27:42
  TRACK 22 AUDIO
    TITLE "P1Q_t_1378-1387_22"
    INDEX 01 00:29:43
  TRACK 23 AUDIO
    TITLE "P1Q_t_1378-1387_23"
    INDEX 01 00:29:63
  TRACK 24 AUDIO
    TITLE "P1Q_t_1378-1387_24"
    INDEX 01 00:34:21
  TRACK 25 AUDIO
    TITLE "P1Q_t_1378-1387_25"
    INDEX 01 00:34:66
  TRACK 26 AUDIO
    TITLE "P1Q_t_1378-1387_26"
    INDEX 01 00:35:69
  TRACK 27 AUDIO
    TITLE "P1Q_t_1378-1387_27"
    INDEX 01 00:36:18
  TRACK 28 AUDIO
    TITLE "P1Q_t_1378-1387_28"
    INDEX 01 00:39:04
  TRACK 29 AUDIO
    TITLE "P1Q_t_1378-1387_29"
    INDEX 01 00:39:26
  TRACK 30 AUDIO
    TITLE "P1Q_t_1378-1387_30"
    INDEX 01 00:45:15
  TRACK 31 AUDIO
    TITLE "P1Q_t_1378-1387_31"
    INDEX 01 00:45:60
  TRACK 32 AUDIO
    TITLE "P1Q_t_1378-1387_32"
    INDEX 01 00:46:71
  TRACK 33 AUDIO
    TITLE "P1Q_t_1378-1387_33"
    INDEX 01 00:47:16
  TRACK 34 AUDIO
    TITLE "P1Q_t_1378-1387_34"
    INDEX 01 00:50:51
  TRACK 35 AUDIO
    TITLE "P1Q_t_1378-1387_35"
    INDEX 01 00:50:71
  TRACK 36 AUDIO
    TITLE "P1Q_t_1378-1387_36"
    INDEX 01 00:54:26
  TRACK 37 AUDIO
    TITLE "P1Q_t_1378-1387_37"
    INDEX 01 00:54:73
  TRACK 38 AUDIO
    TITLE "P1Q_t_1378-1387_38"
    INDEX 01 00:56:05
  TRACK 39 AUDIO
    TITLE "P1Q_t_1378-1387_39"
    INDEX 01 00:56:28
  TRACK 40 AUDIO
    TITLE "P1Q_t_1378-1387_40"
    INDEX 01 00:57:65
  TRACK 41 AUDIO
    TITLE "P1Q_t_1378-1387_41"
    INDEX 01 00:58:10
  TRACK 42 AUDIO
    TITLE "P1Q_t_1378-1387_42"
    INDEX 01 01:03:15
  TRACK 43 AUDIO
    TITLE "P1Q_t_1378-1387_43"
    INDEX 01 01:03:60
  TRACK 44 AUDIO
    TITLE "P1Q_t_1378-1387_44"
    INDEX 01 01:05:02
  TRACK 45 AUDIO
    TITLE "P1Q_t_1378-1387_45"
    INDEX 01 01:05:22
  TRACK 46 AUDIO
    TITLE "P1Q_t_1378-1387_46"
    INDEX 01 01:06:37
  TRACK 47 AUDIO
    TITLE "P1Q_t_1378-1387_47"
    INDEX 01 01:06:56
  TRACK 48 AUDIO
    TITLE "P1Q_t_1378-1387_48"
    INDEX 01 01:10:31
  TRACK 49 AUDIO
    TITLE "P1Q_t_1378-1387_49"
    INDEX 01 01:11:01
  TRACK 50 AUDIO
    TITLE "P1Q_t_1378-1387_50"
    INDEX 01 01:12:22
  TRACK 51 AUDIO
    TITLE "P1Q_t_1378-1387_51"
    INDEX 01 01:12:43
  TRACK 52 AUDIO
    TITLE "P1Q_t_1378-1387_52"
    INDEX 01 01:17:05
  TRACK 53 AUDIO
    TITLE "P1Q_t_1378-1387_53"
    INDEX 01 01:17:25
  TRACK 54 AUDIO
    TITLE "P1Q_t_1378-1387_54"
    INDEX 01 01:21:50
  TRACK 55 AUDIO
    TITLE "P1Q_t_1378-1387_55"
    INDEX 01 01:22:20
  TRACK 56 AUDIO
    TITLE "P1Q_t_1378-1387_56"
    INDEX 01 01:23:45
  TRACK 57 AUDIO
    TITLE "P1Q_t_1378-1387_57"
    INDEX 01 01:23:66
  TRACK 58 AUDIO
    TITLE "P1Q_t_1378-1387_58"
    INDEX 01 01:27:23
  TRACK 59 AUDIO
    TITLE "P1Q_t_1378-1387_59"
    INDEX 01 01:27:45
  TRACK 60 AUDIO
    TITLE "P1Q_t_1378-1387_60"
    INDEX 01 01:31:62
